REM DIRINDEX 1\6,1\2\7,1\2\8,1\2\9,1\3\10,1\3\11,1\4\12,1\4\13,1\4\14,1\5\15,1\5\16,1\5\17
REM DIRNAME folder01,folder02,folder03,folder04,folder05,folder06,folder07,folder08,folder09,folder10,folder11,folder12,folder13,folder14,folder15,folder16,folder17
TITLE ""
FILE "P2Q_t2_1051-1068.mp3" MP3
  TRACK 01 AUDIO
    TITLE "7:cjc040_6987"
    INDEX 01 00:00:00
  TRACK 02 AUDIO
    TITLE "0:"
    INDEX 01 00:01:01
  TRACK 03 AUDIO
    TITLE "8:cjc040_6988"
    INDEX 01 00:01:58
  TRACK 04 AUDIO
    TITLE "0:"
    INDEX 01 00:05:20
  TRACK 05 AUDIO
    TITLE "9:cjc040_6989"
    INDEX 01 00:05:71
  TRACK 06 AUDIO
    TITLE "0:"
    INDEX 01 00:07:11
  TRACK 07 AUDIO
    TITLE "7:cjc040_6990"
    INDEX 01 00:08:58
  TRACK 08 AUDIO
    TITLE "0:"
    INDEX 01 00:10:08
  TRACK 09 AUDIO
    TITLE "8:cjc040_6991"
    INDEX 01 00:10:57
  TRACK 10 AUDIO
    TITLE "0:"
    INDEX 01 00:12:16
  TRACK 11 AUDIO
    TITLE "9:cjc040_6992"
    INDEX 01 00:12:58
  TRACK 12 AUDIO
    TITLE "0:"
    INDEX 01 00:14:07
  TRACK 13 AUDIO
    TITLE "7:cjc040_6993"
    INDEX 01 00:15:58
  TRACK 14 AUDIO
    TITLE "0:"
    INDEX 01 00:17:08
  TRACK 15 AUDIO
    TITLE "8:cjc040_6994"
    INDEX 01 00:17:67
  TRACK 16 AUDIO
    TITLE "0:"
    INDEX 01 00:20:08
  TRACK 17 AUDIO
    TITLE "9:cjc040_6995"
    INDEX 01 00:20:57
  TRACK 18 AUDIO
    TITLE "0:"
    INDEX 01 00:22:05
  TRACK 19 AUDIO
    TITLE "7:cjc040_6996"
    INDEX 01 00:23:63
  TRACK 20 AUDIO
    TITLE "0:"
    INDEX 01 00:25:11
  TRACK 21 AUDIO
    TITLE "8:cjc040_6997"
    INDEX 01 00:25:60
  TRACK 22 AUDIO
    TITLE "0:"
    INDEX 01 00:27:08
  TRACK 23 AUDIO
    TITLE "9:cjc040_6998"
    INDEX 01 00:27:63
  TRACK 24 AUDIO
    TITLE "0:"
    INDEX 01 00:29:13
  TRACK 25 AUDIO
    TITLE "7:cjc040_6999"
    INDEX 01 00:30:63
  TRACK 26 AUDIO
    TITLE "0:"
    INDEX 01 00:32:05
  TRACK 27 AUDIO
    TITLE "8:cjc040_7000"
    INDEX 01 00:32:58
  TRACK 28 AUDIO
    TITLE "0:"
    INDEX 01 00:35:17
  TRACK 29 AUDIO
    TITLE "9:cjc040_7001"
    INDEX 01 00:35:70
  TRACK 30 AUDIO
    TITLE "0:"
    INDEX 01 00:37:14
  TRACK 31 AUDIO
    TITLE "7:cjc040_7002"
    INDEX 01 00:38:71
  TRACK 32 AUDIO
    TITLE "0:"
    INDEX 01 00:40:11
  TRACK 33 AUDIO
    TITLE "8:cjc040_7003"
    INDEX 01 00:40:60
  TRACK 34 AUDIO
    TITLE "0:"
    INDEX 01 00:43:11
  TRACK 35 AUDIO
    TITLE "9:cjc040_7004"
    INDEX 01 00:43:62
  TRACK 36 AUDIO
    TITLE "0:"
    INDEX 01 00:45:08
  TRACK 37 AUDIO
    TITLE "7:cjc040_7005"
    INDEX 01 00:46:66
  TRACK 38 AUDIO
    TITLE "0:"
    INDEX 01 00:48:10
  TRACK 39 AUDIO
    TITLE "8:cjc040_7006"
    INDEX 01 00:48:67
  TRACK 40 AUDIO
    TITLE "0:"
    INDEX 01 00:50:58
  TRACK 41 AUDIO
    TITLE "9:cjc040_7007"
    INDEX 01 00:51:40
  TRACK 42 AUDIO
    TITLE "0:"
    INDEX 01 00:52:61
  TRACK 43 AUDIO
    TITLE "7:cjc040_7008"
    INDEX 01 00:54:36
  TRACK 44 AUDIO
    TITLE "0:"
    INDEX 01 00:55:61
  TRACK 45 AUDIO
    TITLE "8:cjc040_7009"
    INDEX 01 00:56:33
  TRACK 46 AUDIO
    TITLE "0:"
    INDEX 01 00:59:08
  TRACK 47 AUDIO
    TITLE "9:cjc040_7010"
    INDEX 01 00:59:57
  TRACK 48 AUDIO
    TITLE "0:"
    INDEX 01 01:01:05
  TRACK 49 AUDIO
    TITLE "7:cjc040_7011"
    INDEX 01 01:02:63
  TRACK 50 AUDIO
    TITLE "0:"
    INDEX 01 01:04:01
  TRACK 51 AUDIO
    TITLE "8:cjc040_7012"
    INDEX 01 01:04:52
  TRACK 52 AUDIO
    TITLE "0:"
    INDEX 01 01:06:65
  TRACK 53 AUDIO
    TITLE "9:cjc040_7013"
    INDEX 01 01:07:39
  TRACK 54 AUDIO
    TITLE "0:"
    INDEX 01 01:08:56
  TRACK 55 AUDIO
    TITLE "7:cjc040_7014"
    INDEX 01 01:10:37
  TRACK 56 AUDIO
    TITLE "0:"
    INDEX 01 01:11:56
  TRACK 57 AUDIO
    TITLE "8:cjc040_7015"
    INDEX 01 01:12:26
  TRACK 58 AUDIO
    TITLE "0:"
    INDEX 01 01:13:28
  TRACK 59 AUDIO
    TITLE "9:cjc040_7016"
    INDEX 01 01:14:04
  TRACK 60 AUDIO
    TITLE "0:"
    INDEX 01 01:15:19
  TRACK 61 AUDIO
    TITLE "7:cjc040_7017"
    INDEX 01 01:17:02
  TRACK 62 AUDIO
    TITLE "0:"
    INDEX 01 01:18:19
  TRACK 63 AUDIO
    TITLE "8:cjc040_7018"
    INDEX 01 01:18:72
  TRACK 64 AUDIO
    TITLE "0:"
    INDEX 01 01:21:41
  TRACK 65 AUDIO
    TITLE "9:cjc040_7019"
    INDEX 01 01:22:17
  TRACK 66 AUDIO
    TITLE "0:"
    INDEX 01 01:23:34
  TRACK 67 AUDIO
    TITLE "7:cjc040_7020"
    INDEX 01 01:25:11
  TRACK 68 AUDIO
    TITLE "0:"
    INDEX 01 01:26:50
  TRACK 69 AUDIO
    TITLE "8:cjc040_7021"
    INDEX 01 01:27:30
  TRACK 70 AUDIO
    TITLE "0:"
    INDEX 01 01:32:21
  TRACK 71 AUDIO
    TITLE "9:cjc040_7022"
    INDEX 01 01:32:70
  TRACK 72 AUDIO
    TITLE "0:"
    INDEX 01 01:34:32
  TRACK 73 AUDIO
    TITLE "7:cjc040_7023"
    INDEX 01 01:36:13
  TRACK 74 AUDIO
    TITLE "0:"
    INDEX 01 01:37:26
  TRACK 75 AUDIO
    TITLE "8:cjc040_7024"
    INDEX 01 01:38:06
  TRACK 76 AUDIO
    TITLE "0:"
    INDEX 01 01:39:27
  TRACK 77 AUDIO
    TITLE "9:cjc040_7025"
    INDEX 01 01:40:03
  TRACK 78 AUDIO
    TITLE "0:"
    INDEX 01 01:41:18
  TRACK 79 AUDIO
    TITLE "7:cjc040_7026"
    INDEX 01 01:42:73
  TRACK 80 AUDIO
    TITLE "0:"
    INDEX 01 01:44:05
  TRACK 81 AUDIO
    TITLE "8:cjc040_7027"
    INDEX 01 01:44:68
  TRACK 82 AUDIO
    TITLE "0:"
    INDEX 01 01:46:66
  TRACK 83 AUDIO
    TITLE "9:cjc040_7028"
    INDEX 01 01:47:40
  TRACK 84 AUDIO
    TITLE "0:"
    INDEX 01 01:48:50
  TRACK 85 AUDIO
    TITLE "7:cjc040_7029"
    INDEX 01 01:50:37
  TRACK 86 AUDIO
    TITLE "0:"
    INDEX 01 01:51:68
  TRACK 87 AUDIO
    TITLE "8:cjc040_7030"
    INDEX 01 01:52:48
  TRACK 88 AUDIO
    TITLE "0:"
    INDEX 01 01:53:59
  TRACK 89 AUDIO
    TITLE "9:cjc040_7031"
    INDEX 01 01:54:39
  TRACK 90 AUDIO
    TITLE "0:"
    INDEX 01 01:56:00
  TRACK 91 AUDIO
    TITLE "7:cjc040_7032"
    INDEX 01 01:57:51
  TRACK 92 AUDIO
    TITLE "0:"
    INDEX 01 01:59:01
  TRACK 93 AUDIO
    TITLE "8:cjc040_7033"
    INDEX 01 01:59:51
  TRACK 94 AUDIO
    TITLE "0:"
    INDEX 01 02:01:62
  TRACK 95 AUDIO
    TITLE "9:cjc040_7034"
    INDEX 01 02:02:42
  TRACK 96 AUDIO
    TITLE "0:"
    INDEX 01 02:03:71
  TRACK 97 AUDIO
    TITLE "7:cjc040_7035"
    INDEX 01 02:05:50
  TRACK 98 AUDIO
    TITLE "0:"
    INDEX 01 02:07:02
  TRACK 99 AUDIO
    TITLE "8:cjc040_7036"
    INDEX 01 02:07:51
  TRACK 100 AUDIO
    TITLE "0:"
    INDEX 01 02:08:70
  TRACK 101 AUDIO
    TITLE "9:cjc040_7037"
    INDEX 01 02:09:46
  TRACK 102 AUDIO
    TITLE "0:"
    INDEX 01 02:11:04
  TRACK 103 AUDIO
    TITLE "7:cjc040_7038"
    INDEX 01 02:12:54
  TRACK 104 AUDIO
    TITLE "0:"
    INDEX 01 02:13:59
  TRACK 105 AUDIO
    TITLE "8:cjc040_7039"
    INDEX 01 02:14:41
  TRACK 106 AUDIO
    TITLE "0:"
    INDEX 01 02:15:62
  TRACK 107 AUDIO
    TITLE "9:cjc040_7040"
    INDEX 01 02:16:40
  TRACK 108 AUDIO
    TITLE "0:"
    INDEX 01 02:17:49
